<svg xmlns="http://www.w3.org/2000/svg" xmlns:xlink="http://www.w3.org/1999/xlink" width="20" height="20" version="1.1" viewBox="0 0 20 20"><title>normal-remove</title><desc>Created with Sketch.</desc><g id="Welcome" fill="none" fill-rule="evenodd" stroke="none" stroke-width="1"><g id="Artboard" fill="#000" fill-rule="nonzero" transform="translate(-201.000000, -161.000000)"><path id="Combined-Shape" d="M211,170.292893 L205.853553,165.146447 C205.658291,164.951184 205.341709,164.951184 205.146447,165.146447 C204.951184,165.341709 204.951184,165.658291 205.146447,165.853553 L210.292893,171 L205.146447,176.146447 C204.951184,176.341709 204.951184,176.658291 205.146447,176.853553 C205.341709,177.048816 205.658291,177.048816 205.853553,176.853553 L211,171.707107 L216.146447,176.853553 C216.341709,177.048816 216.658291,177.048816 216.853553,176.853553 C217.048816,176.658291 217.048816,176.341709 216.853553,176.146447 L211.707107,171 L216.853553,165.853553 C217.048816,165.658291 217.048816,165.341709 216.853553,165.146447 C216.658291,164.951184 216.341709,164.951184 216.146447,165.146447 L211,170.292893 Z"/></g></g></svg>